<?xml version="1.0" standalone="no"?>
<!DOCTYPE svg PUBLIC "-//W3C//DTD SVG 20010904//EN"
 "http://www.w3.org/TR/2001/REC-SVG-20010904/DTD/svg10.dtd">
<svg version="1.0" xmlns="http://www.w3.org/2000/svg"
 width="700.000000pt" height="700.000000pt" viewBox="0 0 700.000000 700.000000"
 preserveAspectRatio="xMidYMid meet">
<metadata>
Created by potrace 1.11, written by Peter Selinger 2001-2013
</metadata>
<g transform="translate(0.000000,700.000000) scale(0.100000,-0.100000)"
fill="#000000" stroke="none">
<path d="M1914 6711 c-38 -23 -115 -128 -143 -195 -101 -234 -66 -465 112
-735 35 -53 72 -116 82 -141 66 -168 49 -322 -51 -452 -47 -62 -60 -95 -50
-131 12 -48 69 -90 112 -82 11 2 24 4 30 4 12 1 55 41 89 82 54 66 110 202
121 297 11 93 11 113 -2 194 -20 126 -56 210 -158 368 -96 148 -125 229 -121
340 4 106 27 172 87 250 18 25 37 51 42 58 29 48 3 126 -50 148 -44 19 -63 18
-100 -5z"/>
<path d="M3450 6713 c-63 -32 -140 -156 -180 -288 -20 -65 -30 -224 -17 -275
2 -8 7 -31 11 -50 28 -128 130 -316 187 -346 36 -18 63 -18 99 1 65 33 74 107
23 181 -40 59 -90 173 -100 229 -22 118 0 226 66 324 20 30 44 66 53 80 23 34
23 66 -2 106 -32 51 -85 65 -140 38z"/>
<path d="M4979 6712 c-67 -34 -152 -174 -185 -302 -52 -204 -7 -397 146 -625
92 -137 124 -226 122 -345 -1 -96 -26 -166 -92 -256 -54 -72 -61 -104 -34
-155 18 -37 74 -63 115 -54 58 13 157 148 198 270 58 176 36 379 -60 551 -35
64 -80 136 -90 144 -15 13 -61 102 -80 156 -55 156 -24 311 91 454 27 33 32
79 13 119 -26 53 -87 72 -144 43z"/>
<path d="M3469 5416 c-2 -3 -24 -7 -48 -11 -73 -11 -162 -57 -223 -116 -94
-92 -137 -199 -132 -330 2 -70 13 -110 60 -215 3 -7 -16 -14 -53 -18 -89 -10
-290 -47 -378 -70 -340 -87 -689 -240 -970 -425 -55 -36 -104 -68 -110 -70 -5
-2 -14 -9 -20 -15 -5 -6 -35 -29 -65 -51 -137 -100 -362 -306 -487 -448 -151
-171 -323 -415 -420 -598 -23 -42 -46 -85 -52 -95 -15 -27 -91 -192 -106 -234
-8 -19 -23 -60 -35 -90 -73 -187 -154 -499 -175 -675 -3 -22 -7 -49 -9 -60 -2
-11 -7 -58 -11 -105 -4 -47 -9 -96 -10 -110 -2 -14 -3 -188 -4 -387 l-1 -363
-67 0 c-74 0 -122 -20 -144 -61 -18 -34 -6 -252 17 -309 55 -137 159 -232 299
-271 58 -16 259 -17 3174 -17 1822 0 3130 4 3154 9 62 14 156 63 203 106 108
101 149 215 143 391 -4 84 -6 94 -32 119 -24 25 -36 28 -107 31 l-80 4 -1 342
c0 187 -2 364 -4 391 -4 75 -14 187 -19 215 -4 22 -11 68 -21 146 -3 18 -16
86 -30 152 -129 597 -446 1175 -885 1612 -154 153 -262 245 -428 363 -422 301
-970 516 -1462 573 -30 3 -56 7 -58 9 -1 1 9 27 23 57 61 133 52 293 -23 413
-31 49 -114 130 -154 151 -55 28 -132 51 -182 53 -28 1 -53 4 -56 6 -4 3 -9 3
-11 1z"/>
</g>
</svg>
